<mxfile host="65bd71144e">
    <diagram id="ppS71vz0Pq_MHWo6KKrz" name="Page-1">
        <mxGraphModel dx="869" dy="260" grid="0" gridSize="10" guides="1" tooltips="1" connect="1" arrows="1" fold="1" page="0" pageScale="1" pageWidth="1169" pageHeight="827" background="none" math="0" shadow="0">
            <root>
                <mxCell id="0"/>
                <mxCell id="1" parent="0"/>
                <mxCell id="56" style="edgeStyle=orthogonalEdgeStyle;rounded=0;orthogonalLoop=1;jettySize=auto;html=1;exitX=0.5;exitY=0;exitDx=0;exitDy=0;entryX=0.5;entryY=1;entryDx=0;entryDy=0;" parent="1" source="57" edge="1" target="61">
                    <mxGeometry relative="1" as="geometry">
                        <mxPoint x="-78.58000000000027" y="573" as="sourcePoint"/>
                        <mxPoint x="111.37" y="403" as="targetPoint"/>
                        <Array as="points">
                            <mxPoint x="-2.69" y="518"/>
                            <mxPoint x="-2.69" y="488"/>
                            <mxPoint x="110.31" y="488"/>
                            <mxPoint x="110.31" y="458"/>
                        </Array>
                    </mxGeometry>
                </mxCell>
                <mxCell id="175" value="" style="edgeStyle=none;html=1;" edge="1" parent="1" source="174" target="57">
                    <mxGeometry relative="1" as="geometry"/>
                </mxCell>
                <mxCell id="57" value="&lt;span style=&quot;color: rgb(0, 0, 0);&quot;&gt;π(&lt;/span&gt;Н_ТИПЫ_ВЕДОМОСТЕЙ.ИД,&lt;div&gt;&lt;span style=&quot;color: rgb(0, 0, 0);&quot;&gt;Н_ТИПЫ_ВЕДОМОСТЕЙ.НАИМЕНОВАНИЕ)&lt;/span&gt;&lt;/div&gt;" style="rounded=0;whiteSpace=wrap;html=1;" parent="1" vertex="1">
                    <mxGeometry x="-140" y="506" width="269" height="40" as="geometry"/>
                </mxCell>
                <mxCell id="58" style="edgeStyle=orthogonalEdgeStyle;rounded=0;orthogonalLoop=1;jettySize=auto;html=1;exitX=0.5;exitY=0;exitDx=0;exitDy=0;entryX=0.5;entryY=1;entryDx=0;entryDy=0;" parent="1" source="59" target="61" edge="1">
                    <mxGeometry relative="1" as="geometry">
                        <mxPoint x="284.495" y="598" as="sourcePoint"/>
                        <Array as="points">
                            <mxPoint x="237.31" y="518"/>
                            <mxPoint x="237.31" y="488"/>
                            <mxPoint x="110.31" y="488"/>
                            <mxPoint x="110.31" y="458"/>
                        </Array>
                    </mxGeometry>
                </mxCell>
                <mxCell id="173" value="" style="edgeStyle=none;html=1;" edge="1" parent="1" source="172" target="59">
                    <mxGeometry relative="1" as="geometry"/>
                </mxCell>
                <mxCell id="59" value="&lt;span style=&quot;color: rgb(0, 0, 0);&quot;&gt;π(&lt;/span&gt;Н_ВЕДОМОСТИ.ВЕД_ИД,&amp;nbsp;&lt;div&gt;&lt;span style=&quot;color: rgb(0, 0, 0);&quot;&gt;Н_ВЕДОМОСТИ.ДАТА)&lt;/span&gt;&lt;/div&gt;" style="rounded=0;whiteSpace=wrap;html=1;" parent="1" vertex="1">
                    <mxGeometry x="150.55" y="506" width="175.94" height="40" as="geometry"/>
                </mxCell>
                <mxCell id="60" style="edgeStyle=orthogonalEdgeStyle;rounded=0;orthogonalLoop=1;jettySize=auto;html=1;exitX=0.5;exitY=0;exitDx=0;exitDy=0;entryX=0.5;entryY=1;entryDx=0;entryDy=0;" parent="1" source="61" target="63" edge="1">
                    <mxGeometry relative="1" as="geometry"/>
                </mxCell>
                <mxCell id="61" value="⋈(Н_ТИПЫ_ВЕДОМОСТЕЙ.ИД = Н_ВЕДОМОСТИ.ВЕД_ИД)" style="rounded=0;whiteSpace=wrap;html=1;" parent="1" vertex="1">
                    <mxGeometry x="10.120000000000001" y="418" width="200" height="40" as="geometry"/>
                </mxCell>
                <mxCell id="62" style="edgeStyle=orthogonalEdgeStyle;rounded=0;orthogonalLoop=1;jettySize=auto;html=1;exitX=0.5;exitY=0;exitDx=0;exitDy=0;entryX=0.5;entryY=1;entryDx=0;entryDy=0;" parent="1" source="63" target="65" edge="1">
                    <mxGeometry relative="1" as="geometry"/>
                </mxCell>
                <mxCell id="63" value="σ(Н_ТИПЫ_ВЕДОМОСТЕЙ.ИД &amp;lt; 1)" style="rounded=0;whiteSpace=wrap;html=1;" parent="1" vertex="1">
                    <mxGeometry x="3.0899999999999976" y="358" width="216.25" height="40" as="geometry"/>
                </mxCell>
                <mxCell id="64" style="edgeStyle=orthogonalEdgeStyle;rounded=0;orthogonalLoop=1;jettySize=auto;html=1;exitX=0.5;exitY=0;exitDx=0;exitDy=0;entryX=0.5;entryY=1;entryDx=0;entryDy=0;" parent="1" source="65" target="176" edge="1">
                    <mxGeometry relative="1" as="geometry">
                        <mxPoint x="112.37" y="188" as="targetPoint"/>
                    </mxGeometry>
                </mxCell>
                <mxCell id="65" value="σ(Н_ВЕДОМОСТИ.ДАТА &amp;gt; &#39;2010-06-18&#39;)" style="rounded=0;whiteSpace=wrap;html=1;" parent="1" vertex="1">
                    <mxGeometry x="-11.139999999999997" y="288" width="242.5" height="40" as="geometry"/>
                </mxCell>
                <mxCell id="68" value="Result" style="rounded=0;whiteSpace=wrap;html=1;" parent="1" vertex="1">
                    <mxGeometry x="52.82" y="110" width="120" height="40" as="geometry"/>
                </mxCell>
                <mxCell id="69" value="Plan 1" style="text;html=1;align=center;verticalAlign=middle;whiteSpace=wrap;rounded=0;" parent="1" vertex="1">
                    <mxGeometry x="-54.06" y="120" width="60" height="30" as="geometry"/>
                </mxCell>
                <mxCell id="70" style="edgeStyle=orthogonalEdgeStyle;rounded=0;orthogonalLoop=1;jettySize=auto;html=1;entryX=0.5;entryY=1;entryDx=0;entryDy=0;exitX=0.5;exitY=0;exitDx=0;exitDy=0;" parent="1" source="165" target="75" edge="1">
                    <mxGeometry relative="1" as="geometry">
                        <mxPoint x="547" y="396" as="sourcePoint"/>
                        <mxPoint x="655.03" y="380" as="targetPoint"/>
                        <Array as="points">
                            <mxPoint x="557" y="350"/>
                            <mxPoint x="712" y="350"/>
                        </Array>
                    </mxGeometry>
                </mxCell>
                <mxCell id="87" value="" style="edgeStyle=none;html=1;entryX=0.5;entryY=1;entryDx=0;entryDy=0;" parent="1" source="86" target="77" edge="1">
                    <mxGeometry relative="1" as="geometry">
                        <mxPoint x="592.1200000000001" y="708" as="targetPoint"/>
                    </mxGeometry>
                </mxCell>
                <mxCell id="72" style="edgeStyle=orthogonalEdgeStyle;rounded=0;orthogonalLoop=1;jettySize=auto;html=1;entryX=0.5;entryY=1;entryDx=0;entryDy=0;exitX=0.5;exitY=0;exitDx=0;exitDy=0;" parent="1" source="166" target="75" edge="1">
                    <mxGeometry relative="1" as="geometry">
                        <mxPoint x="819" y="393" as="sourcePoint"/>
                        <Array as="points">
                            <mxPoint x="869" y="370"/>
                            <mxPoint x="869" y="370"/>
                            <mxPoint x="869" y="350"/>
                            <mxPoint x="712" y="350"/>
                        </Array>
                        <mxPoint x="750.0299999999999" y="380" as="targetPoint"/>
                    </mxGeometry>
                </mxCell>
                <mxCell id="85" value="" style="edgeStyle=none;html=1;entryX=0.5;entryY=1;entryDx=0;entryDy=0;" parent="1" source="84" target="79" edge="1">
                    <mxGeometry relative="1" as="geometry">
                        <mxPoint x="767.1199999999999" y="680" as="targetPoint"/>
                    </mxGeometry>
                </mxCell>
                <mxCell id="75" value="⋈(Н_ТИПЫ_ВЕДОМОСТЕЙ.ИД = Н_ВЕДОМОСТИ.ВЕД_ИД)" style="rounded=0;whiteSpace=wrap;html=1;" parent="1" vertex="1">
                    <mxGeometry x="611.68" y="286" width="200.88" height="39" as="geometry"/>
                </mxCell>
                <mxCell id="77" value="σ(Н_ТИПЫ_ВЕДОМОСТЕЙ.ИД &amp;lt; 1)" style="rounded=0;whiteSpace=wrap;html=1;" parent="1" vertex="1">
                    <mxGeometry x="449.31" y="488" width="216.25" height="40" as="geometry"/>
                </mxCell>
                <mxCell id="79" value="σ(Н_ВЕДОМОСТИ.ДАТА &amp;gt; &#39;2010-06-18&#39;)" style="rounded=0;whiteSpace=wrap;html=1;" parent="1" vertex="1">
                    <mxGeometry x="747.31" y="500" width="242.5" height="40" as="geometry"/>
                </mxCell>
                <mxCell id="80" style="edgeStyle=orthogonalEdgeStyle;rounded=0;orthogonalLoop=1;jettySize=auto;html=1;exitX=0.5;exitY=0;exitDx=0;exitDy=0;entryX=0.5;entryY=1;entryDx=0;entryDy=0;" parent="1" source="81" target="82" edge="1">
                    <mxGeometry relative="1" as="geometry"/>
                </mxCell>
                <mxCell id="81" value="π(Н_ТИПЫ_ВЕДОМОСТЕЙ.НАИМЕНОВАНИЕ, Н_ВЕДОМОСТИ.ИД)" style="rounded=0;whiteSpace=wrap;html=1;" parent="1" vertex="1">
                    <mxGeometry x="570.5600000000001" y="210" width="283.12" height="40" as="geometry"/>
                </mxCell>
                <mxCell id="82" value="Result" style="rounded=0;whiteSpace=wrap;html=1;" parent="1" vertex="1">
                    <mxGeometry x="652.12" y="130" width="120" height="40" as="geometry"/>
                </mxCell>
                <mxCell id="83" value="Plan 2" style="text;html=1;align=center;verticalAlign=middle;whiteSpace=wrap;rounded=0;" parent="1" vertex="1">
                    <mxGeometry x="544" y="120" width="60" height="30" as="geometry"/>
                </mxCell>
                <mxCell id="84" value="Н_ВЕДОМОСТИ" style="rounded=0;whiteSpace=wrap;html=1;" parent="1" vertex="1">
                    <mxGeometry x="808.56" y="568" width="120" height="40" as="geometry"/>
                </mxCell>
                <mxCell id="86" value="Н_ТИПЫ_ВЕДОМОСТЕЙ" style="rounded=0;whiteSpace=wrap;html=1;" parent="1" vertex="1">
                    <mxGeometry x="482.43" y="568" width="150" height="40" as="geometry"/>
                </mxCell>
                <mxCell id="88" value="" style="endArrow=classic;html=1;exitX=0.5;exitY=0;exitDx=0;exitDy=0;entryX=0.5;entryY=1;entryDx=0;entryDy=0;" parent="1" source="75" target="81" edge="1">
                    <mxGeometry width="50" height="50" relative="1" as="geometry">
                        <mxPoint x="704" y="400" as="sourcePoint"/>
                        <mxPoint x="754" y="350" as="targetPoint"/>
                    </mxGeometry>
                </mxCell>
                <mxCell id="89" style="edgeStyle=orthogonalEdgeStyle;rounded=0;orthogonalLoop=1;jettySize=auto;html=1;exitX=0.5;exitY=0;exitDx=0;exitDy=0;entryX=0.5;entryY=1;entryDx=0;entryDy=0;" parent="1" source="121" edge="1" target="94">
                    <mxGeometry relative="1" as="geometry">
                        <mxPoint x="123.11999999999989" y="1240" as="sourcePoint"/>
                        <mxPoint x="208.12" y="1125" as="targetPoint"/>
                        <Array as="points">
                            <mxPoint x="32" y="1230"/>
                            <mxPoint x="31" y="1230"/>
                            <mxPoint x="31" y="1190"/>
                            <mxPoint x="126" y="1190"/>
                        </Array>
                    </mxGeometry>
                </mxCell>
                <mxCell id="91" style="edgeStyle=orthogonalEdgeStyle;rounded=0;orthogonalLoop=1;jettySize=auto;html=1;exitX=0.5;exitY=0;exitDx=0;exitDy=0;entryX=0.5;entryY=1;entryDx=0;entryDy=0;" parent="1" source="92" target="94" edge="1">
                    <mxGeometry relative="1" as="geometry">
                        <mxPoint x="381.245" y="1320" as="sourcePoint"/>
                        <Array as="points">
                            <mxPoint x="294" y="1190"/>
                            <mxPoint x="126" y="1190"/>
                        </Array>
                    </mxGeometry>
                </mxCell>
                <mxCell id="183" value="" style="edgeStyle=none;html=1;" edge="1" parent="1" source="182" target="92">
                    <mxGeometry relative="1" as="geometry"/>
                </mxCell>
                <mxCell id="92" value="&lt;span style=&quot;color: rgb(0, 0, 0);&quot;&gt;π(&lt;/span&gt;Н_СЕССИЯ.ЧЛВК_ИД,&lt;div&gt;Н_СЕССИЯ.УЧГОД)&lt;/div&gt;" style="rounded=0;whiteSpace=wrap;html=1;" parent="1" vertex="1">
                    <mxGeometry x="222.03" y="1215" width="144.06" height="40" as="geometry"/>
                </mxCell>
                <mxCell id="93" style="edgeStyle=orthogonalEdgeStyle;rounded=0;orthogonalLoop=1;jettySize=auto;html=1;exitX=0.5;exitY=0;exitDx=0;exitDy=0;entryX=0.5;entryY=1;entryDx=0;entryDy=0;" parent="1" source="94" target="96" edge="1">
                    <mxGeometry relative="1" as="geometry"/>
                </mxCell>
                <mxCell id="94" value="⋈(ЧЛВК_ИД)" style="rounded=0;whiteSpace=wrap;html=1;" parent="1" vertex="1">
                    <mxGeometry x="70.16000000000001" y="1110" width="111.88" height="40" as="geometry"/>
                </mxCell>
                <mxCell id="95" style="edgeStyle=orthogonalEdgeStyle;rounded=0;orthogonalLoop=1;jettySize=auto;html=1;exitX=0.5;exitY=0;exitDx=0;exitDy=0;entryX=0.5;entryY=1;entryDx=0;entryDy=0;" parent="1" source="96" target="98" edge="1">
                    <mxGeometry relative="1" as="geometry"/>
                </mxCell>
                <mxCell id="96" value="σ(&lt;span style=&quot;color: rgb(0, 0, 0);&quot;&gt;Н_ВЕДОМОСТИ&lt;/span&gt;.ИД &amp;lt; 1250981)" style="rounded=0;whiteSpace=wrap;html=1;" parent="1" vertex="1">
                    <mxGeometry x="17.980000000000004" y="1030" width="216.25" height="40" as="geometry"/>
                </mxCell>
                <mxCell id="97" style="edgeStyle=orthogonalEdgeStyle;rounded=0;orthogonalLoop=1;jettySize=auto;html=1;exitX=0.5;exitY=0;exitDx=0;exitDy=0;entryX=0.5;entryY=1;entryDx=0;entryDy=0;" parent="1" source="98" target="100" edge="1">
                    <mxGeometry relative="1" as="geometry"/>
                </mxCell>
                <mxCell id="98" value="σ(Н_ЛЮДИ.ИД &amp;gt; 100012)" style="rounded=0;whiteSpace=wrap;html=1;" parent="1" vertex="1">
                    <mxGeometry x="39.530000000000015" y="950" width="173.13" height="40" as="geometry"/>
                </mxCell>
                <mxCell id="99" style="edgeStyle=orthogonalEdgeStyle;rounded=0;orthogonalLoop=1;jettySize=auto;html=1;exitX=0.5;exitY=0;exitDx=0;exitDy=0;entryX=0.5;entryY=1;entryDx=0;entryDy=0;" parent="1" source="100" target="101" edge="1">
                    <mxGeometry relative="1" as="geometry"/>
                </mxCell>
                <mxCell id="100" value="π(Н_ЛЮДИ.ФАМИЛИЯ, Н_ВЕДОМОСТИ.ДАТА, Н_СЕССИЯ.УЧГОД)" style="rounded=0;whiteSpace=wrap;html=1;" parent="1" vertex="1">
                    <mxGeometry x="-15.459999999999937" y="870" width="283.12" height="40" as="geometry"/>
                </mxCell>
                <mxCell id="101" value="Result" style="rounded=0;whiteSpace=wrap;html=1;" parent="1" vertex="1">
                    <mxGeometry x="66.10000000000001" y="790" width="120" height="40" as="geometry"/>
                </mxCell>
                <mxCell id="102" value="Plan 1" style="text;html=1;align=center;verticalAlign=middle;whiteSpace=wrap;rounded=0;" parent="1" vertex="1">
                    <mxGeometry x="-42.019999999999996" y="780" width="60" height="30" as="geometry"/>
                </mxCell>
                <mxCell id="110" style="edgeStyle=orthogonalEdgeStyle;rounded=0;orthogonalLoop=1;jettySize=auto;html=1;exitX=0.5;exitY=0;exitDx=0;exitDy=0;entryX=0.5;entryY=1;entryDx=0;entryDy=0;" parent="1" source="111" target="112" edge="1">
                    <mxGeometry relative="1" as="geometry"/>
                </mxCell>
                <mxCell id="111" value="&lt;span style=&quot;color: rgb(0, 0, 0);&quot;&gt;π(Н_ЛЮДИ.ФАМИЛИЯ, Н_ВЕДОМОСТИ.ДАТА, Н_СЕССИЯ.УЧГОД)&lt;/span&gt;" style="rounded=0;whiteSpace=wrap;html=1;" parent="1" vertex="1">
                    <mxGeometry x="554.6800000000001" y="870" width="283.12" height="40" as="geometry"/>
                </mxCell>
                <mxCell id="112" value="Result" style="rounded=0;whiteSpace=wrap;html=1;" parent="1" vertex="1">
                    <mxGeometry x="636.24" y="790" width="120" height="40" as="geometry"/>
                </mxCell>
                <mxCell id="113" value="Plan 2" style="text;html=1;align=center;verticalAlign=middle;whiteSpace=wrap;rounded=0;" parent="1" vertex="1">
                    <mxGeometry x="488.12" y="780" width="60" height="30" as="geometry"/>
                </mxCell>
                <mxCell id="116" value="" style="endArrow=classic;html=1;exitX=0.5;exitY=0;exitDx=0;exitDy=0;entryX=0.5;entryY=1;entryDx=0;entryDy=0;" parent="1" source="136" target="111" edge="1">
                    <mxGeometry width="50" height="50" relative="1" as="geometry">
                        <mxPoint x="696.2399999999998" y="945" as="sourcePoint"/>
                        <mxPoint x="738.12" y="1010" as="targetPoint"/>
                    </mxGeometry>
                </mxCell>
                <mxCell id="117" style="edgeStyle=orthogonalEdgeStyle;rounded=0;orthogonalLoop=1;jettySize=auto;html=1;exitX=0.5;exitY=0;exitDx=0;exitDy=0;entryX=0.5;entryY=1;entryDx=0;entryDy=0;" parent="1" source="188" edge="1">
                    <mxGeometry relative="1" as="geometry">
                        <mxPoint x="-53.79000000000019" y="1335" as="sourcePoint"/>
                        <mxPoint x="31.209999999999994" y="1234" as="targetPoint"/>
                        <Array as="points">
                            <mxPoint x="126" y="1295"/>
                            <mxPoint x="31" y="1295"/>
                        </Array>
                    </mxGeometry>
                </mxCell>
                <mxCell id="119" style="edgeStyle=orthogonalEdgeStyle;rounded=0;orthogonalLoop=1;jettySize=auto;html=1;exitX=0.5;exitY=0;exitDx=0;exitDy=0;entryX=0.5;entryY=1;entryDx=0;entryDy=0;" parent="1" source="190" target="121" edge="1">
                    <mxGeometry relative="1" as="geometry">
                        <mxPoint x="121.20999999999981" y="1335" as="sourcePoint"/>
                        <Array as="points">
                            <mxPoint x="-86" y="1295"/>
                            <mxPoint x="32" y="1295"/>
                        </Array>
                    </mxGeometry>
                </mxCell>
                <mxCell id="121" value="⋈(&lt;span style=&quot;color: rgb(0, 0, 0);&quot;&gt;Н_ЛЮДИ&lt;/span&gt;.ИД = Н_ВЕДОМОСТИ.ЧЛВК_ИД)" style="rounded=0;whiteSpace=wrap;html=1;" parent="1" vertex="1">
                    <mxGeometry x="-68.31" y="1210" width="200" height="50" as="geometry"/>
                </mxCell>
                <mxCell id="133" style="edgeStyle=orthogonalEdgeStyle;rounded=0;orthogonalLoop=1;jettySize=auto;html=1;exitX=0.5;exitY=0;exitDx=0;exitDy=0;entryX=0.5;entryY=1;entryDx=0;entryDy=0;" parent="1" source="141" target="136" edge="1">
                    <mxGeometry relative="1" as="geometry">
                        <mxPoint x="613.1199999999999" y="1080" as="sourcePoint"/>
                        <mxPoint x="698.12" y="965" as="targetPoint"/>
                        <Array as="points">
                            <mxPoint x="590" y="1040"/>
                            <mxPoint x="696" y="1040"/>
                            <mxPoint x="696" y="990"/>
                        </Array>
                    </mxGeometry>
                </mxCell>
                <mxCell id="134" style="edgeStyle=orthogonalEdgeStyle;rounded=0;orthogonalLoop=1;jettySize=auto;html=1;entryX=0.5;entryY=1;entryDx=0;entryDy=0;exitX=0.5;exitY=0;exitDx=0;exitDy=0;" parent="1" source="193" target="136" edge="1">
                    <mxGeometry relative="1" as="geometry">
                        <mxPoint x="950" y="1080" as="sourcePoint"/>
                        <Array as="points">
                            <mxPoint x="890" y="1080"/>
                            <mxPoint x="890" y="1040"/>
                            <mxPoint x="696" y="1040"/>
                        </Array>
                        <mxPoint x="726.2099999999997" y="1005" as="targetPoint"/>
                    </mxGeometry>
                </mxCell>
                <mxCell id="194" value="" style="edgeStyle=none;html=1;" edge="1" parent="1" source="135" target="193">
                    <mxGeometry relative="1" as="geometry"/>
                </mxCell>
                <mxCell id="135" value="Н_СЕССИЯ" style="rounded=0;whiteSpace=wrap;html=1;" parent="1" vertex="1">
                    <mxGeometry x="832.0299999999999" y="1150" width="120" height="40" as="geometry"/>
                </mxCell>
                <mxCell id="136" value="⋈(ЧЛВК_ИД)" style="rounded=0;whiteSpace=wrap;html=1;" parent="1" vertex="1">
                    <mxGeometry x="639.36" y="950" width="113.76" height="40" as="geometry"/>
                </mxCell>
                <mxCell id="137" style="edgeStyle=orthogonalEdgeStyle;rounded=0;orthogonalLoop=1;jettySize=auto;html=1;entryX=0.5;entryY=1;entryDx=0;entryDy=0;exitX=0.5;exitY=0;exitDx=0;exitDy=0;" parent="1" source="155" target="141" edge="1">
                    <mxGeometry relative="1" as="geometry">
                        <mxPoint x="470" y="1190" as="sourcePoint"/>
                        <mxPoint x="590" y="1095" as="targetPoint"/>
                        <Array as="points">
                            <mxPoint x="508" y="1160"/>
                            <mxPoint x="590" y="1160"/>
                        </Array>
                    </mxGeometry>
                </mxCell>
                <mxCell id="145" value="" style="edgeStyle=none;html=1;entryX=0.5;entryY=1;entryDx=0;entryDy=0;" parent="1" source="144" target="138" edge="1">
                    <mxGeometry relative="1" as="geometry"/>
                </mxCell>
                <mxCell id="138" value="&lt;span style=&quot;color: rgb(0, 0, 0);&quot;&gt;&lt;span style=&quot;color: rgb(0, 0, 0);&quot;&gt;π(&lt;/span&gt;Н_ЛЮДИ.ИД,&amp;nbsp;&lt;/span&gt;&lt;div&gt;&lt;span style=&quot;color: rgb(0, 0, 0);&quot;&gt;&lt;span style=&quot;color: rgb(0, 0, 0);&quot;&gt;Н_ЛЮДИ.ФАМИЛИЯ&lt;/span&gt;)&lt;/span&gt;&lt;/div&gt;" style="rounded=0;whiteSpace=wrap;html=1;" parent="1" vertex="1">
                    <mxGeometry x="428.12" y="1260" width="160" height="40" as="geometry"/>
                </mxCell>
                <mxCell id="139" style="edgeStyle=orthogonalEdgeStyle;rounded=0;orthogonalLoop=1;jettySize=auto;html=1;entryX=0.5;entryY=1;entryDx=0;entryDy=0;exitX=0.5;exitY=0;exitDx=0;exitDy=0;" parent="1" source="156" target="141" edge="1">
                    <mxGeometry relative="1" as="geometry">
                        <mxPoint x="690" y="1190" as="sourcePoint"/>
                        <Array as="points">
                            <mxPoint x="714" y="1160"/>
                            <mxPoint x="590" y="1160"/>
                        </Array>
                    </mxGeometry>
                </mxCell>
                <mxCell id="143" value="" style="edgeStyle=none;html=1;" parent="1" source="142" target="140" edge="1">
                    <mxGeometry relative="1" as="geometry"/>
                </mxCell>
                <mxCell id="140" value="&lt;span style=&quot;color: rgb(0, 0, 0);&quot;&gt;π(Н_ВЕДОМОСТИ.ИД,&amp;nbsp;&lt;/span&gt;&lt;div&gt;&lt;span style=&quot;color: rgb(0, 0, 0);&quot;&gt;&lt;span style=&quot;color: rgb(0, 0, 0);&quot;&gt;Н_ВЕДОМОСТИ.ЧЛВК_ИД,&amp;nbsp;&lt;/span&gt;&lt;/span&gt;&lt;/div&gt;&lt;div&gt;&lt;span style=&quot;color: rgb(0, 0, 0);&quot;&gt;&lt;span style=&quot;color: rgb(0, 0, 0);&quot;&gt;Н_ВЕДОМОСТИ.ДАТА&lt;/span&gt;)&lt;/span&gt;&lt;/div&gt;" style="rounded=0;whiteSpace=wrap;html=1;" parent="1" vertex="1">
                    <mxGeometry x="618.12" y="1255" width="191.88" height="50" as="geometry"/>
                </mxCell>
                <mxCell id="141" value="⋈(&lt;span style=&quot;color: rgb(0, 0, 0);&quot;&gt;Н_ЛЮДИ&lt;/span&gt;.ИД = Н_ВЕДОМОСТИ.ЧЛВК_ИД)" style="rounded=0;whiteSpace=wrap;html=1;" parent="1" vertex="1">
                    <mxGeometry x="490" y="1080" width="200" height="50" as="geometry"/>
                </mxCell>
                <mxCell id="142" value="Н_ВЕДОМОСТИ" style="rounded=0;whiteSpace=wrap;html=1;" parent="1" vertex="1">
                    <mxGeometry x="654.0600000000001" y="1340" width="120" height="40" as="geometry"/>
                </mxCell>
                <mxCell id="144" value="Н_ЛЮДИ" style="rounded=0;whiteSpace=wrap;html=1;" parent="1" vertex="1">
                    <mxGeometry x="433.12" y="1340" width="150" height="40" as="geometry"/>
                </mxCell>
                <mxCell id="155" value="&lt;span style=&quot;color: rgb(0, 0, 0);&quot;&gt;σ(Н_ЛЮДИ.ИД &amp;gt; 100012)&lt;/span&gt;" style="rounded=0;whiteSpace=wrap;html=1;" parent="1" vertex="1">
                    <mxGeometry x="428.12" y="1180" width="160" height="40" as="geometry"/>
                </mxCell>
                <mxCell id="156" value="&lt;span style=&quot;color: rgb(0, 0, 0);&quot;&gt;σ(&lt;/span&gt;&lt;span style=&quot;color: rgb(0, 0, 0);&quot;&gt;Н_ВЕДОМОСТИ&lt;/span&gt;&lt;span style=&quot;color: rgb(0, 0, 0);&quot;&gt;.ИД &amp;lt; 1250981)&lt;/span&gt;" style="rounded=0;whiteSpace=wrap;html=1;" parent="1" vertex="1">
                    <mxGeometry x="634.0600000000001" y="1180" width="160" height="40" as="geometry"/>
                </mxCell>
                <mxCell id="157" value="" style="edgeStyle=none;html=1;entryX=0.5;entryY=1;entryDx=0;entryDy=0;exitX=0.5;exitY=0;exitDx=0;exitDy=0;" parent="1" source="140" target="156" edge="1">
                    <mxGeometry relative="1" as="geometry">
                        <mxPoint x="740" y="1240" as="sourcePoint"/>
                        <mxPoint x="697.82" y="1220" as="targetPoint"/>
                    </mxGeometry>
                </mxCell>
                <mxCell id="158" value="" style="edgeStyle=none;html=1;entryX=0.5;entryY=1;entryDx=0;entryDy=0;exitX=0.5;exitY=0;exitDx=0;exitDy=0;" parent="1" source="138" target="155" edge="1">
                    <mxGeometry relative="1" as="geometry">
                        <mxPoint x="708" y="1270" as="sourcePoint"/>
                        <mxPoint x="708" y="1230" as="targetPoint"/>
                    </mxGeometry>
                </mxCell>
                <mxCell id="165" value="π(Н_ТИПЫ_ВЕДОМОСТЕЙ.ИД,&lt;br&gt;&lt;div&gt;&lt;span style=&quot;color: rgb(0, 0, 0); background-color: transparent;&quot;&gt;Н_ТИПЫ_ВЕДОМОСТЕЙ.НАИМЕНОВАНИЕ&lt;/span&gt;)&lt;/div&gt;" style="rounded=0;whiteSpace=wrap;html=1;" vertex="1" parent="1">
                    <mxGeometry x="415.87000000000006" y="393" width="283.12" height="40" as="geometry"/>
                </mxCell>
                <mxCell id="166" value="π(Н_ВЕДОМОСТИ.ИД, &lt;br&gt;&lt;span style=&quot;color: rgb(0, 0, 0);&quot;&gt;Н_ВЕДОМОСТИ.ВЕД_ИД&lt;/span&gt;)" style="rounded=0;whiteSpace=wrap;html=1;" vertex="1" parent="1">
                    <mxGeometry x="727.0000000000001" y="365" width="283.12" height="40" as="geometry"/>
                </mxCell>
                <mxCell id="167" value="" style="edgeStyle=none;html=1;entryX=0.5;entryY=1;entryDx=0;entryDy=0;exitX=0.5;exitY=0;exitDx=0;exitDy=0;" edge="1" parent="1" source="179" target="166">
                    <mxGeometry relative="1" as="geometry">
                        <mxPoint x="863" y="405" as="targetPoint"/>
                        <mxPoint x="870" y="440" as="sourcePoint"/>
                    </mxGeometry>
                </mxCell>
                <mxCell id="168" value="" style="edgeStyle=none;html=1;entryX=0.5;entryY=1;entryDx=0;entryDy=0;exitX=0.5;exitY=0;exitDx=0;exitDy=0;" edge="1" parent="1" source="77" target="165">
                    <mxGeometry relative="1" as="geometry">
                        <mxPoint x="554.6800000000001" y="446" as="targetPoint"/>
                        <mxPoint x="554.6800000000001" y="486" as="sourcePoint"/>
                    </mxGeometry>
                </mxCell>
                <mxCell id="172" value="Н_ВЕДОМОСТИ" style="rounded=0;whiteSpace=wrap;html=1;" vertex="1" parent="1">
                    <mxGeometry x="179.62" y="568" width="120" height="40" as="geometry"/>
                </mxCell>
                <mxCell id="174" value="Н_ТИПЫ_ВЕДОМОСТЕЙ" style="rounded=0;whiteSpace=wrap;html=1;" vertex="1" parent="1">
                    <mxGeometry x="-79.4" y="568" width="150" height="40" as="geometry"/>
                </mxCell>
                <mxCell id="176" value="σ(Н_ВЕДОМОСТИ.ДАТА = &#39;2010-06-18&#39;)" style="rounded=0;whiteSpace=wrap;html=1;" vertex="1" parent="1">
                    <mxGeometry x="-11.129999999999997" y="228" width="242.5" height="40" as="geometry"/>
                </mxCell>
                <mxCell id="177" style="edgeStyle=orthogonalEdgeStyle;rounded=0;orthogonalLoop=1;jettySize=auto;html=1;entryX=0.5;entryY=1;entryDx=0;entryDy=0;exitX=0.5;exitY=0;exitDx=0;exitDy=0;" edge="1" parent="1" source="185" target="68">
                    <mxGeometry relative="1" as="geometry">
                        <mxPoint x="330" y="60" as="sourcePoint"/>
                        <mxPoint x="123" y="230" as="targetPoint"/>
                        <Array as="points"/>
                    </mxGeometry>
                </mxCell>
                <mxCell id="179" value="σ(Н_ВЕДОМОСТИ.ДАТА = &#39;2010-06-18&#39;)" style="rounded=0;whiteSpace=wrap;html=1;" vertex="1" parent="1">
                    <mxGeometry x="747.31" y="440" width="242.5" height="40" as="geometry"/>
                </mxCell>
                <mxCell id="181" value="" style="edgeStyle=none;html=1;entryX=0.5;entryY=1;entryDx=0;entryDy=0;exitX=0.5;exitY=0;exitDx=0;exitDy=0;" edge="1" parent="1" source="79" target="179">
                    <mxGeometry relative="1" as="geometry">
                        <mxPoint x="868.43" y="494" as="targetPoint"/>
                        <mxPoint x="870" y="503" as="sourcePoint"/>
                    </mxGeometry>
                </mxCell>
                <mxCell id="182" value="Н_СЕССИЯ" style="rounded=0;whiteSpace=wrap;html=1;" vertex="1" parent="1">
                    <mxGeometry x="234.06" y="1295" width="120" height="40" as="geometry"/>
                </mxCell>
                <mxCell id="185" value="&lt;span style=&quot;color: rgb(0, 0, 0);&quot;&gt;π(&lt;/span&gt;Н_ТИПЫ_ВЕДОМОСТЕЙ.ИД,&lt;div&gt;&lt;span style=&quot;color: rgb(0, 0, 0);&quot;&gt;Н_ТИПЫ_ВЕДОМОСТЕЙ.НАИМЕНОВАНИЕ)&lt;/span&gt;&lt;/div&gt;" style="rounded=0;whiteSpace=wrap;html=1;" vertex="1" parent="1">
                    <mxGeometry x="-21.680000000000007" y="170" width="269" height="40" as="geometry"/>
                </mxCell>
                <mxCell id="186" style="edgeStyle=orthogonalEdgeStyle;rounded=0;orthogonalLoop=1;jettySize=auto;html=1;exitX=0.5;exitY=0;exitDx=0;exitDy=0;entryX=0.5;entryY=1;entryDx=0;entryDy=0;" edge="1" parent="1" source="176" target="185">
                    <mxGeometry relative="1" as="geometry">
                        <mxPoint x="120" y="298" as="sourcePoint"/>
                        <mxPoint x="120" y="278" as="targetPoint"/>
                    </mxGeometry>
                </mxCell>
                <mxCell id="187" value="" style="edgeStyle=none;html=1;entryX=0.5;entryY=1;entryDx=0;entryDy=0;" edge="1" parent="1" source="192" target="188">
                    <mxGeometry relative="1" as="geometry"/>
                </mxCell>
                <mxCell id="188" value="&lt;span style=&quot;color: rgb(0, 0, 0);&quot;&gt;&lt;span style=&quot;color: rgb(0, 0, 0);&quot;&gt;π(&lt;/span&gt;Н_ЛЮДИ.ИД,&amp;nbsp;&lt;/span&gt;&lt;div&gt;&lt;span style=&quot;color: rgb(0, 0, 0);&quot;&gt;&lt;span style=&quot;color: rgb(0, 0, 0);&quot;&gt;Н_ЛЮДИ.ФАМИЛИЯ&lt;/span&gt;)&lt;/span&gt;&lt;/div&gt;" style="rounded=0;whiteSpace=wrap;html=1;" vertex="1" parent="1">
                    <mxGeometry x="46.099999999999994" y="1320" width="160" height="40" as="geometry"/>
                </mxCell>
                <mxCell id="189" value="" style="edgeStyle=none;html=1;" edge="1" parent="1" source="191" target="190">
                    <mxGeometry relative="1" as="geometry"/>
                </mxCell>
                <mxCell id="190" value="&lt;span style=&quot;color: rgb(0, 0, 0);&quot;&gt;π(Н_ВЕДОМОСТИ.ИД,&amp;nbsp;&lt;/span&gt;&lt;div&gt;&lt;span style=&quot;color: rgb(0, 0, 0);&quot;&gt;&lt;span style=&quot;color: rgb(0, 0, 0);&quot;&gt;Н_ВЕДОМОСТИ.ЧЛВК_ИД,&amp;nbsp;&lt;/span&gt;&lt;/span&gt;&lt;/div&gt;&lt;div&gt;&lt;span style=&quot;color: rgb(0, 0, 0);&quot;&gt;&lt;span style=&quot;color: rgb(0, 0, 0);&quot;&gt;Н_ВЕДОМОСТИ.ДАТА&lt;/span&gt;)&lt;/span&gt;&lt;/div&gt;" style="rounded=0;whiteSpace=wrap;html=1;" vertex="1" parent="1">
                    <mxGeometry x="-181.76" y="1320" width="191.88" height="50" as="geometry"/>
                </mxCell>
                <mxCell id="191" value="Н_ВЕДОМОСТИ" style="rounded=0;whiteSpace=wrap;html=1;" vertex="1" parent="1">
                    <mxGeometry x="-145.81999999999994" y="1391" width="120" height="40" as="geometry"/>
                </mxCell>
                <mxCell id="192" value="Н_ЛЮДИ" style="rounded=0;whiteSpace=wrap;html=1;" vertex="1" parent="1">
                    <mxGeometry x="51.099999999999994" y="1386" width="150" height="40" as="geometry"/>
                </mxCell>
                <mxCell id="193" value="&lt;span style=&quot;color: rgb(0, 0, 0);&quot;&gt;π(&lt;/span&gt;Н_СЕССИЯ.ЧЛВК_ИД,&lt;div&gt;Н_СЕССИЯ.УЧГОД)&lt;/div&gt;" style="rounded=0;whiteSpace=wrap;html=1;" vertex="1" parent="1">
                    <mxGeometry x="819.9999999999999" y="1080" width="144.06" height="40" as="geometry"/>
                </mxCell>
            </root>
        </mxGraphModel>
    </diagram>
</mxfile>